<?xml version="1.0" encoding="UTF-8"?>
<svg version="1.1" xmlns="http://www.w3.org/2000/svg" width="500" height="500">
<path d="M0 0 C165 0 330 0 500 0 C500 165 500 330 500 500 C335 500 170 500 0 500 C0 335 0 170 0 0 Z " fill="#FEFEFE" transform="translate(0,0)"/>
<path d="M0 0 C0.17102725 4.37484059 0.33598883 8.74989121 0.5 13.125 C0.57154297 14.95224609 0.57154297 14.95224609 0.64453125 16.81640625 C0.9557067 25.21814336 1.05819087 33.59303609 1 42 C-0.32 42.33 -1.64 42.66 -3 43 C-3.53367187 41.99582031 -4.06734375 40.99164063 -4.6171875 39.95703125 C-15.55129222 19.74098715 -28.57974172 3.82697434 -51 -4 C-51.73863281 -4.27585937 -52.47726563 -4.55171875 -53.23828125 -4.8359375 C-71.07779965 -11.23661728 -91.90552895 -11.31903254 -109.25 -3.375 C-120.76320699 2.85748272 -128.88755893 11.71804236 -132.875 24.25 C-135.74634512 36.44032148 -134.53033677 47.90772768 -128.41015625 58.83984375 C-115.57260965 78.19115607 -90.6216309 87.39732679 -70 96 C-70.07000229 91.69853339 -70.15846974 87.39791578 -70.26245117 83.09716797 C-70.29525027 81.64088804 -70.32341429 80.18449466 -70.34643555 78.72802734 C-70.25446542 60.10837349 -70.25446542 60.10837349 -78 44 C-80.51364756 42.17380913 -80.51364756 42.17380913 -83 41 C-83.66 40.67 -84.32 40.34 -85 40 C-85 38.35 -85 36.7 -85 35 C-65.86 35 -46.72 35 -27 35 C-27 36.65 -27 38.3 -27 40 C-28.609375 41.265625 -28.609375 41.265625 -30.75 42.25 C-35.7475243 45.05392071 -37.4326993 48.607423 -39 54 C-40.24397639 59.68779934 -40.12698413 65.29584189 -40.09765625 71.0859375 C-40.0962413 72.14285797 -40.09482635 73.19977844 -40.09336853 74.28872681 C-40.0877894 77.65084716 -40.07524069 81.01289991 -40.0625 84.375 C-40.05748231 86.66015529 -40.05291987 88.94531162 -40.04882812 91.23046875 C-40.03782679 96.8203354 -40.02110944 102.41016287 -40 108 C-39.00492432 108.51804199 -38.00984863 109.03608398 -36.98461914 109.56982422 C-23.39812046 116.69370019 -23.39812046 116.69370019 -17.4375 121.125 C-16.88771484 121.51558594 -16.33792969 121.90617188 -15.77148438 122.30859375 C-11.77709411 125.21102644 -8.41407729 128.45757394 -5 132 C-0.98735099 130.43618265 1.39265724 127.61064233 4.16796875 124.45703125 C9.08317375 119.00539928 14.15882435 113.75013054 19.36328125 108.57421875 C20.09102753 107.8497757 20.8187738 107.12533264 21.568573 106.37893677 C23.81457423 104.14645807 26.06309151 101.91654527 28.3125 99.6875 C31.31159218 96.71523962 34.30717324 93.73950148 37.30078125 90.76171875 C37.97071609 90.10008224 38.64065094 89.43844574 39.33088684 88.75675964 C43.23918418 84.86858871 46.94501583 80.86617701 50.53266907 76.6796875 C52.20694562 74.76310458 54.00082794 73.03257347 55.875 71.3125 C62.74032303 64.55444765 70.80052562 55.08396857 71.125 45.1875 C71.08375 44.135625 71.0425 43.08375 71 42 C67.535 40.515 67.535 40.515 64 39 C64 37.68 64 36.36 64 35 C80.5 35 97 35 114 35 C114 36.65 114 38.3 114 40 C112.88625 40.31710938 111.7725 40.63421875 110.625 40.9609375 C92.97687846 46.24699885 79.95466625 55.09132665 67 68 C65.77649193 69.19837655 64.55251961 70.39627925 63.328125 71.59375 C56.40210375 78.41307171 56.40210375 78.41307171 49.88671875 85.61987305 C45.65384507 90.47527109 41.10721797 94.98215735 36.5234375 99.50390625 C34.7003867 101.31431807 32.87747417 103.12486912 31.0546875 104.93554688 C28.20830601 107.75708525 25.36053581 110.57718409 22.50976562 113.39428711 C19.73905349 116.13472735 16.97465144 118.88141103 14.2109375 121.62890625 C13.36187836 122.46450577 12.51281921 123.30010529 11.63803101 124.161026 C7.25036666 128.53011005 3.41413845 132.82941251 0 138 C0.495 138.78375 0.99 139.5675 1.5 140.375 C3 143 3 143 3 145 C3.66418945 144.97905273 4.32837891 144.95810547 5.01269531 144.93652344 C29.72483683 144.25936104 29.72483683 144.25936104 39 149 C39.87398437 149.43570313 40.74796875 149.87140625 41.6484375 150.3203125 C64.55809168 162.91030263 73.3777207 192.53705017 82.68887329 215.35351562 C94.05332963 250.32399194 94.05332963 250.32399194 116 278 C119.03883681 278.57437061 119.03883681 278.57437061 122.25 278.6875 C123.86648438 278.78611328 123.86648438 278.78611328 125.515625 278.88671875 C126.33546875 278.92410156 127.1553125 278.96148437 128 279 C128 280.65 128 282.3 128 284 C121.25001073 285.72722346 115.01969929 286.36534393 108.0625 286.375 C107.13759766 286.39949219 106.21269531 286.42398437 105.25976562 286.44921875 C96.91209619 286.48431757 88.69514364 284.42939869 82.41796875 278.57421875 C77.33187116 272.92766964 73.63163024 266.56003443 70.2578125 259.78125 C69.91240417 259.08791061 69.56699585 258.39457123 69.21112061 257.68022156 C65.5914704 250.31456944 62.38829992 242.78661114 59.24417114 235.20831299 C58.22039301 232.74115131 57.18890558 230.27732039 56.15600586 227.81396484 C52.93029697 220.10877938 49.74082826 212.39008481 46.61328125 204.64453125 C35.88559301 175.11536781 35.88559301 175.11536781 13.39453125 154.97265625 C10.93314179 153.97284226 8.47000553 152.97835032 6 152 C6.32307129 152.54857666 6.64614258 153.09715332 6.97900391 153.66235352 C11.37985298 163.73842474 9.06095642 181.2742756 5.19140625 191.359375 C4.60166016 192.66648437 4.60166016 192.66648437 4 194 C3.63777344 194.87140625 3.27554688 195.7428125 2.90234375 196.640625 C-3.99869626 211.89309309 -17.30296165 223.47266402 -32 231 C-34.97084881 232.10102901 -37.96858311 233.07999874 -41 234 C-40.85669277 255.50432032 -40.85669277 255.50432032 -35 276 C-33.15017528 277.25827123 -33.15017528 277.25827123 -31 278 C-29.66666667 278.66666667 -28.33333333 279.33333333 -27 280 C-27 281.65 -27 283.3 -27 285 C-45.81 285 -64.62 285 -84 285 C-84 283.02 -84 281.04 -84 279 C-83.071875 278.5875 -82.14375 278.175 -81.1875 277.75 C-76.3429282 275.09023509 -74.83186195 272.07563331 -73 267 C-71.12899411 258.10966482 -70.51575627 249.0528798 -70 240 C-71.22332031 240.03480469 -72.44664062 240.06960938 -73.70703125 240.10546875 C-104.03110359 240.70690783 -133.71869935 233.02025167 -159 216 C-160.6217998 214.3782002 -160.21278599 212.53989262 -160.29711914 210.29663086 C-160.33708511 209.29566879 -160.37705109 208.29470673 -160.41822815 207.26341248 C-160.45681442 206.1748848 -160.4954007 205.08635712 -160.53515625 203.96484375 C-160.57813339 202.85645645 -160.62111053 201.74806915 -160.66539001 200.60609436 C-160.80223857 197.0500506 -160.93243536 193.49379774 -161.0625 189.9375 C-161.15386036 187.5331865 -161.24565147 185.12888932 -161.33789062 182.72460938 C-161.56360088 176.81658694 -161.78384385 170.90837928 -162 165 C-159.60864258 165.31958008 -159.60864258 165.31958008 -157 166 C-155.63321273 168.26978829 -154.66078988 170.25577638 -153.6875 172.6875 C-153.08935755 174.06326062 -152.48636185 175.43691982 -151.87890625 176.80859375 C-151.57098145 177.50839355 -151.26305664 178.20819336 -150.94580078 178.92919922 C-146.36715455 188.95399976 -140.34268866 197.78157783 -133 206 C-132.47277344 206.62132812 -131.94554687 207.24265625 -131.40234375 207.8828125 C-115.40517463 225.47560718 -92.71256459 231.37767396 -70 233 C-70 198.68 -70 164.36 -70 129 C-73.3 128.01 -76.6 127.02 -80 126 C-81.90142431 125.30242982 -83.79266444 124.57530554 -85.6640625 123.80078125 C-86.63311523 123.40028564 -87.60216797 122.99979004 -88.60058594 122.5871582 C-89.59864258 122.166521 -90.59669922 121.74588379 -91.625 121.3125 C-93.19942871 120.65157349 -93.19942871 120.65157349 -94.80566406 119.97729492 C-103.39976133 116.33013703 -111.76560603 112.39538597 -120 108 C-121.0621875 107.45085937 -122.124375 106.90171875 -123.21875 106.3359375 C-139.28013647 97.60152372 -150.17959078 85.08563299 -155.75390625 67.640625 C-159.76892188 51.35594623 -157.1678089 33.94520662 -148.671875 19.58203125 C-136.73665418 1.14936545 -118.30058522 -8.58168714 -97.25927734 -13.54638672 C-63.62787326 -20.29883418 -31.00681581 -12.57633765 0 0 Z " fill="#563516" transform="translate(267,87)"/>
<path d="M0 0 C3.77832988 1.70148035 4.90870634 3.09295923 6.6875 6.875 C7.10386719 7.73867187 7.52023438 8.60234375 7.94921875 9.4921875 C11.99577191 19.14976047 11.71812952 33.14217619 7.875 42.75 C3.44829661 51.55394641 -3.50088325 61.71966124 -13.14648438 65.10400391 C-14.08814453 65.39968262 -15.02980469 65.69536133 -16 66 C-16.41043369 59.17432944 -16.68770931 52.35189224 -16.87890625 45.51660156 C-16.95869061 43.19963813 -17.06737999 40.88346268 -17.20703125 38.56933594 C-18.39829317 18.30036473 -18.39829317 18.30036473 -12.3671875 10.8046875 C-8.58579559 6.7778061 -4.46546639 3.24611118 0 0 Z " fill="#FCFCFC" transform="translate(242,248)"/>
<path d="M0 0 C3.81185133 2.2871108 6.59185787 4.25527358 9.8125 7.1875 C10.60269531 7.90292969 11.39289063 8.61835938 12.20703125 9.35546875 C12.79871094 9.89816406 13.39039063 10.44085938 14 11 C12.00396156 13.33682549 10.0036279 15.66969364 8 18 C7.04867187 19.11181641 7.04867187 19.11181641 6.078125 20.24609375 C5.45421875 20.96925781 4.8303125 21.69242188 4.1875 22.4375 C3.31158203 23.45650391 3.31158203 23.45650391 2.41796875 24.49609375 C1.95003906 24.99238281 1.48210937 25.48867188 1 26 C0.67 26 0.34 26 0 26 C0 17.42 0 8.84 0 0 Z " fill="#FCFBFB" transform="translate(226,232)"/>
</svg>
